<?xml version="1.0" encoding="UTF-8"?>
<svg xmlns="http://www.w3.org/2000/svg" xmlns:xlink="http://www.w3.org/1999/xlink" width="127pt" height="14pt" viewBox="0 0 127 14" version="1.1">
<g id="surface1">
<path style=" stroke:none;fill-rule:nonzero;fill:rgb(100%,100%,100%);fill-opacity:1;" d="M 20.261719 4.679688 C 20.71875 4.679688 21.132812 4.78125 21.507812 4.988281 C 21.882812 5.203125 22.179688 5.503906 22.402344 5.898438 C 22.617188 6.289062 22.726562 6.746094 22.726562 7.261719 C 22.726562 7.78125 22.617188 8.242188 22.402344 8.640625 C 22.179688 9.03125 21.882812 9.335938 21.507812 9.554688 C 21.132812 9.765625 20.71875 9.871094 20.261719 9.871094 C 19.601562 9.871094 19.105469 9.675781 18.78125 9.289062 L 18.78125 9.785156 L 17.097656 9.785156 L 17.097656 2.902344 L 18.859375 2.902344 L 18.859375 5.195312 C 19.199219 4.851562 19.667969 4.679688 20.261719 4.679688 Z M 19.890625 8.46875 C 20.203125 8.46875 20.457031 8.359375 20.652344 8.148438 C 20.847656 7.9375 20.945312 7.640625 20.945312 7.261719 C 20.945312 6.890625 20.847656 6.601562 20.652344 6.394531 C 20.457031 6.183594 20.203125 6.074219 19.890625 6.074219 C 19.582031 6.074219 19.328125 6.183594 19.132812 6.394531 C 18.933594 6.601562 18.832031 6.890625 18.832031 7.261719 C 18.832031 7.640625 18.933594 7.9375 19.132812 8.148438 C 19.328125 8.359375 19.582031 8.46875 19.890625 8.46875 Z M 27.121094 2.902344 L 28.882812 2.902344 L 28.882812 9.785156 L 27.199219 9.785156 L 27.199219 9.289062 C 26.875 9.675781 26.382812 9.871094 25.730469 9.871094 C 25.273438 9.871094 24.855469 9.765625 24.480469 9.554688 C 24.101562 9.335938 23.800781 9.03125 23.585938 8.640625 C 23.367188 8.242188 23.253906 7.78125 23.253906 7.261719 C 23.253906 6.746094 23.367188 6.289062 23.585938 5.898438 C 23.800781 5.503906 24.101562 5.203125 24.480469 4.988281 C 24.855469 4.78125 25.273438 4.679688 25.730469 4.679688 C 26.332031 4.679688 26.792969 4.851562 27.121094 5.195312 Z M 26.101562 8.46875 C 26.402344 8.46875 26.652344 8.359375 26.847656 8.148438 C 27.046875 7.9375 27.148438 7.640625 27.148438 7.261719 C 27.148438 6.890625 27.050781 6.601562 26.855469 6.394531 C 26.660156 6.183594 26.410156 6.074219 26.101562 6.074219 C 25.792969 6.074219 25.539062 6.183594 25.339844 6.394531 C 25.140625 6.601562 25.042969 6.890625 25.042969 7.261719 C 25.042969 7.640625 25.140625 7.9375 25.339844 8.148438 C 25.539062 8.359375 25.792969 8.46875 26.101562 8.46875 Z M 29.796875 11.667969 C 29.285156 11.667969 28.878906 11.582031 28.578125 11.410156 L 29.019531 10.15625 C 29.179688 10.257812 29.359375 10.308594 29.5625 10.308594 C 29.726562 10.308594 29.855469 10.25 29.949219 10.136719 C 30.039062 10.027344 30.085938 9.863281 30.085938 9.644531 L 30.085938 4.757812 L 31.847656 4.757812 L 31.847656 9.660156 C 31.847656 10.277344 31.667969 10.765625 31.304688 11.125 C 30.941406 11.484375 30.441406 11.667969 29.796875 11.667969 Z M 30.96875 4.203125 C 30.644531 4.203125 30.382812 4.113281 30.1875 3.9375 C 29.988281 3.753906 29.886719 3.53125 29.886719 3.265625 C 29.886719 3.003906 29.988281 2.78125 30.1875 2.597656 C 30.382812 2.421875 30.644531 2.332031 30.96875 2.332031 C 31.289062 2.332031 31.546875 2.417969 31.742188 2.585938 C 31.941406 2.757812 32.039062 2.976562 32.039062 3.242188 C 32.039062 3.519531 31.941406 3.75 31.742188 3.929688 C 31.546875 4.109375 31.289062 4.203125 30.96875 4.203125 Z M 35.496094 9.871094 C 34.960938 9.871094 34.476562 9.757812 34.046875 9.535156 C 33.613281 9.3125 33.273438 9.003906 33.027344 8.605469 C 32.78125 8.214844 32.660156 7.765625 32.660156 7.261719 C 32.660156 6.765625 32.78125 6.324219 33.027344 5.929688 C 33.273438 5.53125 33.609375 5.222656 34.039062 5.003906 C 34.464844 4.785156 34.953125 4.679688 35.496094 4.679688 C 36.042969 4.679688 36.53125 4.785156 36.964844 5.003906 C 37.398438 5.222656 37.730469 5.53125 37.96875 5.921875 C 38.214844 6.316406 38.335938 6.761719 38.335938 7.261719 C 38.335938 7.765625 38.214844 8.214844 37.96875 8.605469 C 37.730469 9.003906 37.398438 9.3125 36.964844 9.535156 C 36.53125 9.757812 36.042969 9.871094 35.496094 9.871094 Z M 35.496094 8.46875 C 35.804688 8.46875 36.058594 8.359375 36.253906 8.148438 C 36.453125 7.9375 36.554688 7.640625 36.554688 7.261719 C 36.554688 6.890625 36.453125 6.601562 36.253906 6.394531 C 36.058594 6.183594 35.804688 6.074219 35.496094 6.074219 C 35.1875 6.074219 34.933594 6.183594 34.738281 6.394531 C 34.542969 6.601562 34.441406 6.890625 34.441406 7.261719 C 34.441406 7.640625 34.542969 7.9375 34.738281 8.148438 C 34.933594 8.359375 35.1875 8.46875 35.496094 8.46875 Z M 42.304688 4.679688 C 42.765625 4.679688 43.183594 4.78125 43.558594 4.988281 C 43.929688 5.203125 44.222656 5.503906 44.445312 5.898438 C 44.664062 6.289062 44.773438 6.746094 44.773438 7.261719 C 44.773438 7.78125 44.664062 8.242188 44.445312 8.640625 C 44.222656 9.03125 43.929688 9.335938 43.558594 9.554688 C 43.183594 9.765625 42.765625 9.871094 42.304688 9.871094 C 41.648438 9.871094 41.152344 9.675781 40.824219 9.289062 L 40.824219 9.785156 L 39.148438 9.785156 L 39.148438 2.902344 L 40.910156 2.902344 L 40.910156 5.195312 C 41.25 4.851562 41.714844 4.679688 42.304688 4.679688 Z M 41.933594 8.46875 C 42.246094 8.46875 42.496094 8.359375 42.695312 8.148438 C 42.894531 7.9375 42.996094 7.640625 42.996094 7.261719 C 42.996094 6.890625 42.894531 6.601562 42.695312 6.394531 C 42.496094 6.183594 42.246094 6.074219 41.933594 6.074219 C 41.625 6.074219 41.375 6.183594 41.179688 6.394531 C 40.980469 6.601562 40.882812 6.890625 40.882812 7.261719 C 40.882812 7.640625 40.980469 7.9375 41.179688 8.148438 C 41.375 8.359375 41.625 8.46875 41.933594 8.46875 Z M 48.746094 4.679688 C 49.207031 4.679688 49.621094 4.785156 49.996094 4.996094 C 50.367188 5.207031 50.664062 5.511719 50.886719 5.902344 C 51.105469 6.296875 51.214844 6.753906 51.214844 7.273438 C 51.214844 7.792969 51.105469 8.246094 50.886719 8.640625 C 50.664062 9.03125 50.367188 9.335938 49.996094 9.554688 C 49.621094 9.765625 49.207031 9.871094 48.746094 9.871094 C 48.160156 9.871094 47.695312 9.695312 47.351562 9.339844 L 47.351562 11.585938 L 45.589844 11.585938 L 45.589844 4.757812 L 47.265625 4.757812 L 47.265625 5.261719 C 47.59375 4.871094 48.089844 4.679688 48.746094 4.679688 Z M 48.375 8.46875 C 48.683594 8.46875 48.9375 8.359375 49.136719 8.148438 C 49.335938 7.9375 49.433594 7.644531 49.433594 7.273438 C 49.433594 6.902344 49.335938 6.609375 49.136719 6.394531 C 48.9375 6.183594 48.683594 6.074219 48.375 6.074219 C 48.066406 6.074219 47.816406 6.183594 47.621094 6.394531 C 47.421875 6.609375 47.324219 6.902344 47.324219 7.273438 C 47.324219 7.644531 47.421875 7.9375 47.621094 8.148438 C 47.816406 8.359375 48.066406 8.46875 48.375 8.46875 Z M 53.703125 5.359375 C 53.886719 5.136719 54.121094 4.964844 54.40625 4.851562 C 54.691406 4.734375 55.023438 4.679688 55.394531 4.679688 L 55.394531 6.261719 C 55.234375 6.242188 55.101562 6.234375 54.996094 6.234375 C 54.621094 6.234375 54.324219 6.335938 54.109375 6.539062 C 53.898438 6.742188 53.789062 7.054688 53.789062 7.480469 L 53.789062 9.785156 L 52.03125 9.785156 L 52.03125 4.757812 L 53.703125 4.757812 Z M 61.269531 7.28125 C 61.269531 7.292969 61.261719 7.441406 61.246094 7.71875 L 57.589844 7.71875 C 57.664062 7.980469 57.808594 8.179688 58.019531 8.316406 C 58.230469 8.457031 58.5 8.527344 58.820312 8.527344 C 59.0625 8.527344 59.273438 8.492188 59.449219 8.421875 C 59.625 8.355469 59.804688 8.246094 59.980469 8.089844 L 60.90625 9.058594 C 60.421875 9.601562 59.707031 9.871094 58.769531 9.871094 C 58.183594 9.871094 57.664062 9.757812 57.21875 9.535156 C 56.773438 9.3125 56.429688 9.003906 56.1875 8.605469 C 55.945312 8.214844 55.824219 7.765625 55.824219 7.261719 C 55.824219 6.765625 55.941406 6.324219 56.179688 5.929688 C 56.414062 5.542969 56.742188 5.234375 57.167969 5.007812 C 57.585938 4.789062 58.058594 4.679688 58.582031 4.679688 C 59.082031 4.679688 59.535156 4.78125 59.945312 4.988281 C 60.351562 5.195312 60.675781 5.496094 60.914062 5.882812 C 61.152344 6.277344 61.269531 6.742188 61.269531 7.28125 Z M 58.589844 5.929688 C 58.320312 5.929688 58.09375 6.007812 57.90625 6.160156 C 57.726562 6.316406 57.613281 6.527344 57.5625 6.792969 L 59.621094 6.792969 C 59.570312 6.527344 59.453125 6.316406 59.273438 6.160156 C 59.089844 6.007812 58.863281 5.929688 58.589844 5.929688 Z M 65.242188 4.679688 C 65.703125 4.679688 66.117188 4.785156 66.492188 4.996094 C 66.863281 5.207031 67.160156 5.511719 67.378906 5.902344 C 67.601562 6.296875 67.710938 6.753906 67.710938 7.273438 C 67.710938 7.792969 67.601562 8.246094 67.378906 8.640625 C 67.160156 9.03125 66.863281 9.335938 66.492188 9.554688 C 66.117188 9.765625 65.703125 9.871094 65.242188 9.871094 C 64.65625 9.871094 64.191406 9.695312 63.847656 9.339844 L 63.847656 11.585938 L 62.085938 11.585938 L 62.085938 4.757812 L 63.757812 4.757812 L 63.757812 5.261719 C 64.089844 4.871094 64.585938 4.679688 65.242188 4.679688 Z M 64.871094 8.46875 C 65.179688 8.46875 65.433594 8.359375 65.632812 8.148438 C 65.832031 7.9375 65.929688 7.644531 65.929688 7.273438 C 65.929688 6.902344 65.832031 6.609375 65.632812 6.394531 C 65.433594 6.183594 65.179688 6.074219 64.871094 6.074219 C 64.5625 6.074219 64.3125 6.183594 64.117188 6.394531 C 63.917969 6.609375 63.820312 6.902344 63.820312 7.273438 C 63.820312 7.644531 63.917969 7.9375 64.117188 8.148438 C 64.3125 8.359375 64.5625 8.46875 64.871094 8.46875 Z M 70.664062 4.679688 C 71.496094 4.679688 72.136719 4.867188 72.578125 5.246094 C 73.011719 5.628906 73.230469 6.210938 73.230469 6.996094 L 73.230469 9.785156 L 71.589844 9.785156 L 71.589844 9.136719 C 71.339844 9.625 70.84375 9.871094 70.109375 9.871094 C 69.71875 9.871094 69.382812 9.804688 69.101562 9.667969 C 68.816406 9.527344 68.601562 9.347656 68.460938 9.117188 C 68.3125 8.882812 68.242188 8.617188 68.242188 8.320312 C 68.242188 7.84375 68.421875 7.476562 68.785156 7.214844 C 69.148438 6.949219 69.710938 6.816406 70.472656 6.816406 L 71.472656 6.816406 C 71.441406 6.289062 71.085938 6.023438 70.40625 6.023438 C 70.167969 6.023438 69.925781 6.058594 69.675781 6.136719 C 69.429688 6.214844 69.21875 6.324219 69.042969 6.460938 L 68.453125 5.261719 C 68.730469 5.074219 69.070312 4.933594 69.464844 4.832031 C 69.863281 4.730469 70.261719 4.679688 70.664062 4.679688 Z M 70.605469 8.757812 C 70.808594 8.757812 70.984375 8.707031 71.140625 8.605469 C 71.292969 8.507812 71.40625 8.367188 71.472656 8.175781 L 71.472656 7.738281 L 70.710938 7.738281 C 70.199219 7.738281 69.941406 7.910156 69.941406 8.25 C 69.941406 8.402344 70 8.527344 70.121094 8.621094 C 70.234375 8.710938 70.398438 8.757812 70.605469 8.757812 Z M 76.027344 5.359375 C 76.203125 5.136719 76.433594 4.964844 76.71875 4.851562 C 77.007812 4.734375 77.335938 4.679688 77.707031 4.679688 L 77.707031 6.261719 C 77.546875 6.242188 77.414062 6.234375 77.308594 6.234375 C 76.933594 6.234375 76.640625 6.335938 76.429688 6.539062 C 76.214844 6.742188 76.105469 7.054688 76.105469 7.480469 L 76.105469 9.785156 L 74.34375 9.785156 L 74.34375 4.757812 L 76.027344 4.757812 Z M 80.59375 4.679688 C 81.425781 4.679688 82.0625 4.867188 82.5 5.246094 C 82.941406 5.628906 83.160156 6.210938 83.160156 6.996094 L 83.160156 9.785156 L 81.519531 9.785156 L 81.519531 9.136719 C 81.265625 9.625 80.769531 9.871094 80.035156 9.871094 C 79.648438 9.871094 79.3125 9.804688 79.023438 9.667969 C 78.742188 9.527344 78.527344 9.347656 78.382812 9.117188 C 78.238281 8.882812 78.164062 8.617188 78.164062 8.320312 C 78.164062 7.84375 78.347656 7.476562 78.714844 7.214844 C 79.074219 6.949219 79.636719 6.816406 80.394531 6.816406 L 81.402344 6.816406 C 81.371094 6.289062 81.015625 6.023438 80.335938 6.023438 C 80.09375 6.023438 79.847656 6.058594 79.601562 6.136719 C 79.351562 6.214844 79.144531 6.324219 78.972656 6.460938 L 78.375 5.261719 C 78.652344 5.074219 78.992188 4.933594 79.394531 4.832031 C 79.792969 4.730469 80.191406 4.679688 80.59375 4.679688 Z M 80.527344 8.757812 C 80.730469 8.757812 80.910156 8.707031 81.0625 8.605469 C 81.21875 8.507812 81.328125 8.367188 81.402344 8.175781 L 81.402344 7.738281 L 80.640625 7.738281 C 80.128906 7.738281 79.871094 7.910156 79.871094 8.25 C 79.871094 8.402344 79.929688 8.527344 80.042969 8.621094 C 80.164062 8.710938 80.324219 8.757812 80.527344 8.757812 Z M 87.296875 8.347656 L 87.734375 9.582031 C 87.589844 9.671875 87.410156 9.746094 87.191406 9.796875 C 86.980469 9.847656 86.753906 9.871094 86.511719 9.871094 C 85.859375 9.871094 85.355469 9.710938 85 9.386719 C 84.648438 9.066406 84.472656 8.585938 84.472656 7.949219 L 84.472656 6.261719 L 83.742188 6.261719 L 83.742188 4.941406 L 84.472656 4.941406 L 84.472656 3.636719 L 86.234375 3.636719 L 86.234375 4.941406 L 87.382812 4.941406 L 87.382812 6.261719 L 86.234375 6.261719 L 86.234375 7.929688 C 86.234375 8.113281 86.28125 8.253906 86.378906 8.355469 C 86.476562 8.457031 86.601562 8.507812 86.761719 8.507812 C 86.964844 8.507812 87.144531 8.453125 87.296875 8.347656 Z M 88.410156 9.785156 L 88.410156 4.757812 L 90.171875 4.757812 L 90.171875 9.785156 Z M 89.289062 4.203125 C 88.972656 4.203125 88.714844 4.113281 88.515625 3.9375 C 88.316406 3.753906 88.21875 3.53125 88.21875 3.265625 C 88.21875 3.003906 88.316406 2.78125 88.515625 2.597656 C 88.714844 2.421875 88.972656 2.332031 89.289062 2.332031 C 89.613281 2.332031 89.875 2.417969 90.070312 2.585938 C 90.269531 2.757812 90.371094 2.976562 90.371094 3.242188 C 90.371094 3.519531 90.269531 3.75 90.070312 3.929688 C 89.875 4.109375 89.613281 4.203125 89.289062 4.203125 Z M 93.832031 9.871094 C 93.296875 9.871094 92.816406 9.757812 92.382812 9.535156 C 91.949219 9.3125 91.609375 9.003906 91.363281 8.605469 C 91.121094 8.214844 91 7.765625 91 7.261719 C 91 6.765625 91.121094 6.324219 91.363281 5.929688 C 91.609375 5.53125 91.949219 5.222656 92.375 5.003906 C 92.804688 4.785156 93.289062 4.679688 93.832031 4.679688 C 94.378906 4.679688 94.867188 4.785156 95.300781 5.003906 C 95.734375 5.222656 96.070312 5.53125 96.308594 5.921875 C 96.550781 6.316406 96.671875 6.761719 96.671875 7.261719 C 96.671875 7.765625 96.550781 8.214844 96.308594 8.605469 C 96.070312 9.003906 95.734375 9.3125 95.300781 9.535156 C 94.867188 9.757812 94.378906 9.871094 93.832031 9.871094 Z M 93.832031 8.46875 C 94.140625 8.46875 94.394531 8.359375 94.59375 8.148438 C 94.792969 7.9375 94.890625 7.640625 94.890625 7.261719 C 94.890625 6.890625 94.792969 6.601562 94.59375 6.394531 C 94.394531 6.183594 94.140625 6.074219 93.832031 6.074219 C 93.523438 6.074219 93.269531 6.183594 93.078125 6.394531 C 92.878906 6.601562 92.78125 6.890625 92.78125 7.261719 C 92.78125 7.640625 92.878906 7.9375 93.078125 8.148438 C 93.269531 8.359375 93.523438 8.46875 93.832031 8.46875 Z M 100.753906 4.679688 C 101.382812 4.679688 101.886719 4.863281 102.265625 5.234375 C 102.644531 5.605469 102.835938 6.164062 102.835938 6.910156 L 102.835938 9.785156 L 101.074219 9.785156 L 101.074219 7.203125 C 101.074219 6.511719 100.796875 6.167969 100.246094 6.167969 C 99.945312 6.167969 99.703125 6.269531 99.519531 6.464844 C 99.335938 6.664062 99.246094 6.960938 99.246094 7.355469 L 99.246094 9.785156 L 97.484375 9.785156 L 97.484375 4.757812 L 99.160156 4.757812 L 99.160156 5.308594 C 99.359375 5.105469 99.59375 4.949219 99.867188 4.835938 C 100.136719 4.730469 100.433594 4.679688 100.753906 4.679688 Z M 104.675781 9.871094 C 104.378906 9.871094 104.128906 9.773438 103.925781 9.574219 C 103.722656 9.375 103.621094 9.125 103.621094 8.824219 C 103.621094 8.515625 103.722656 8.265625 103.917969 8.070312 C 104.121094 7.878906 104.375 7.785156 104.675781 7.785156 C 104.984375 7.785156 105.238281 7.878906 105.4375 8.070312 C 105.632812 8.265625 105.734375 8.515625 105.734375 8.824219 C 105.734375 9.125 105.632812 9.375 105.4375 9.574219 C 105.234375 9.773438 104.980469 9.871094 104.675781 9.871094 Z M 109.121094 9.871094 C 108.566406 9.871094 108.070312 9.757812 107.632812 9.535156 C 107.195312 9.3125 106.855469 9.003906 106.605469 8.605469 C 106.363281 8.214844 106.242188 7.765625 106.242188 7.261719 C 106.242188 6.761719 106.363281 6.316406 106.605469 5.921875 C 106.855469 5.53125 107.195312 5.222656 107.632812 5.003906 C 108.070312 4.785156 108.566406 4.679688 109.121094 4.679688 C 109.691406 4.679688 110.183594 4.800781 110.597656 5.042969 C 111.015625 5.285156 111.308594 5.625 111.480469 6.054688 L 110.117188 6.75 C 109.886719 6.300781 109.554688 6.074219 109.117188 6.074219 C 108.804688 6.074219 108.542969 6.183594 108.335938 6.394531 C 108.128906 6.601562 108.023438 6.890625 108.023438 7.261719 C 108.023438 7.640625 108.128906 7.9375 108.335938 8.148438 C 108.542969 8.359375 108.804688 8.46875 109.117188 8.46875 C 109.554688 8.46875 109.886719 8.242188 110.117188 7.792969 L 111.480469 8.488281 C 111.308594 8.917969 111.015625 9.261719 110.597656 9.507812 C 110.183594 9.75 109.691406 9.871094 109.121094 9.871094 Z M 114.667969 9.871094 C 114.132812 9.871094 113.644531 9.757812 113.214844 9.535156 C 112.78125 9.3125 112.445312 9.003906 112.199219 8.605469 C 111.953125 8.214844 111.832031 7.765625 111.832031 7.261719 C 111.832031 6.765625 111.953125 6.324219 112.199219 5.929688 C 112.445312 5.53125 112.777344 5.222656 113.207031 5.003906 C 113.636719 4.785156 114.121094 4.679688 114.667969 4.679688 C 115.210938 4.679688 115.699219 4.785156 116.132812 5.003906 C 116.566406 5.222656 116.902344 5.53125 117.140625 5.921875 C 117.382812 6.316406 117.503906 6.761719 117.503906 7.261719 C 117.503906 7.765625 117.382812 8.214844 117.140625 8.605469 C 116.902344 9.003906 116.566406 9.3125 116.132812 9.535156 C 115.699219 9.757812 115.210938 9.871094 114.667969 9.871094 Z M 114.667969 8.46875 C 114.980469 8.46875 115.230469 8.359375 115.425781 8.148438 C 115.625 7.9375 115.722656 7.640625 115.722656 7.261719 C 115.722656 6.890625 115.625 6.601562 115.425781 6.394531 C 115.230469 6.183594 114.980469 6.074219 114.667969 6.074219 C 114.359375 6.074219 114.105469 6.183594 113.910156 6.394531 C 113.710938 6.601562 113.609375 6.890625 113.609375 7.261719 C 113.609375 7.640625 113.710938 7.9375 113.910156 8.148438 C 114.105469 8.359375 114.359375 8.46875 114.667969 8.46875 Z M 124.863281 4.679688 C 125.480469 4.679688 125.972656 4.863281 126.339844 5.234375 C 126.707031 5.605469 126.890625 6.164062 126.890625 6.910156 L 126.890625 9.785156 L 125.128906 9.785156 L 125.128906 7.203125 C 125.128906 6.847656 125.0625 6.589844 124.929688 6.421875 C 124.796875 6.253906 124.609375 6.167969 124.367188 6.167969 C 124.101562 6.167969 123.890625 6.261719 123.730469 6.445312 C 123.570312 6.632812 123.488281 6.914062 123.488281 7.292969 L 123.488281 9.785156 L 121.726562 9.785156 L 121.726562 7.203125 C 121.726562 6.511719 121.476562 6.167969 120.972656 6.167969 C 120.699219 6.167969 120.480469 6.261719 120.324219 6.445312 C 120.160156 6.632812 120.078125 6.914062 120.078125 7.292969 L 120.078125 9.785156 L 118.316406 9.785156 L 118.316406 4.757812 L 120 4.757812 L 120 5.289062 C 120.183594 5.085938 120.40625 4.933594 120.660156 4.832031 C 120.917969 4.730469 121.195312 4.679688 121.496094 4.679688 C 121.847656 4.679688 122.164062 4.742188 122.441406 4.871094 C 122.71875 5.003906 122.945312 5.203125 123.117188 5.464844 C 123.316406 5.210938 123.566406 5.015625 123.871094 4.882812 C 124.171875 4.746094 124.5 4.679688 124.863281 4.679688 Z M 124.863281 4.679688 "/>
<path style=" stroke:none;fill-rule:nonzero;fill:rgb(100%,100%,100%);fill-opacity:1;" d="M 1.761719 6.285156 L 6.277344 1.761719 L 6.589844 2.070312 L 2.070312 6.59375 Z M 7.492188 12.019531 L 12.007812 7.496094 L 12.320312 7.804688 L 7.800781 12.328125 Z M 1.761719 7.804688 L 2.070312 7.496094 L 6.589844 12.015625 L 6.277344 12.328125 Z M 7.492188 2.070312 L 7.800781 1.761719 L 12.320312 6.28125 L 12.007812 6.59375 Z M 7.492188 2.070312 "/>
<path style=" stroke:none;fill-rule:nonzero;fill:rgb(100%,100%,100%);fill-opacity:1;" d="M 6.996094 0.617188 L 7.730469 1.355469 L 6.996094 2.089844 L 6.257812 1.355469 L 6.996094 0.617188 M 6.996094 0 L 5.640625 1.355469 L 6.996094 2.710938 L 8.347656 1.355469 Z M 6.996094 11.910156 L 7.730469 12.644531 L 6.996094 13.382812 L 6.257812 12.644531 L 6.996094 11.910156 M 6.996094 11.289062 L 5.640625 12.644531 L 6.996094 14 L 8.347656 12.644531 Z M 1.355469 6.265625 L 2.089844 7 L 1.355469 7.734375 L 0.617188 7 L 1.355469 6.265625 M 1.355469 5.644531 L 0 7 L 1.355469 8.355469 L 2.707031 7 Z M 12.636719 6.265625 L 13.371094 7 L 12.636719 7.734375 L 11.902344 7 L 12.636719 6.265625 M 12.636719 5.644531 L 11.28125 7 L 12.636719 8.355469 L 13.988281 7 Z M 12.636719 5.644531 "/>
</g>
</svg>
